<svg width="100" height="100" xmlns="http://www.w3.org/2000/svg">

 <g>
  <title>background</title>
  <rect fill="none" id="canvas_background" height="102" width="102" y="-1" x="-1"/>
 </g>
 <g>
  <title>Layer 1</title>
  <rect stroke="null" x="-0.000009" id="svg_1" height="99.900002" width="100.000016" fill="#05336E" y="0.049999"/>
  <g id="svg_2">
   <path id="svg_3" d="m37.450003,86.999997c-0.9,-0.3 -1.6,-0.3 -2,-0.3l-0.5,1c0.4,-0.2 1.2,-0.5 2.1,-0.2c1.5,0.5 2.1,1.8 1.7,3.5l-0.4,-0.1c-1.1,-0.3 -1.9,-0.6 -3,-1.2l-0.4,1.2c1.2,0.2 2.1,0.4 3.1,0.7l0.4,0.1c-0.6,1.9 -1.9,2.7 -3.5,2.2c-1.3,-0.4 -1.8,-1.6 -1.8,-1.6l-0.4,1.4c0,0 0.8,0.5 2,0.9c2.5,0.8 4.6,-0.2 5.4,-2.7c0.9,-2.3 -0.2,-4.2 -2.7,-4.9l0,0z" fill="#FFFFFF"/>
   <path id="svg_4" d="m11.150003,67.399997c0,0.9 -0.7,1.7 -1.7,1.7c-0.9,0 -1.7,-0.7 -1.7,-1.7s0.7,-1.7 1.7,-1.7c0.9,0 1.7,0.8 1.7,1.7l0,0z" fill="#FFFFFF"/>
   <path id="svg_5" d="m90.650003,67.199997c0,0.9 -0.7,1.7 -1.7,1.7c-0.9,0 -1.7,-0.7 -1.7,-1.7c0,-0.9 0.7,-1.7 1.7,-1.7c1,0 1.7,0.8 1.7,1.7l0,0z" fill="#FFFFFF"/>
   <path id="svg_6" d="m55.650003,52.899997c0.1,0.9 0.1,1.8 0.1,4.2c0,2.6 0,3.7 -0.1,4.5l1.9,0c-0.1,-0.9 -0.1,-1.9 -0.1,-4.5c0,-2.4 0,-3.4 0.1,-4.2l-1.9,0l0,0z" fill="#FFFFFF"/>
   <path id="svg_7" d="m59.250003,59.299997c0,1.6 1.2,2.5 3.2,2.5c2.1,0 3.3,-0.9 3.3,-2.6c0,-1.1 -0.6,-1.8 -1.7,-2.2c0.9,-0.3 1.4,-1 1.4,-2c0,-1.5 -1.1,-2.3 -2.9,-2.3c-1.9,0 -3,0.9 -3,2.4c0,1 0.5,1.6 1.4,2c-1.1,0.3 -1.7,1.1 -1.7,2.2l0,0zm3.2,-5.8c0.8,0 1.3,0.6 1.3,1.6c0,1 -0.5,1.6 -1.2,1.6c-0.8,0 -1.3,-0.6 -1.3,-1.6c0,-1 0.4,-1.6 1.2,-1.6l0,0zm0,4c0.9,0 1.5,0.7 1.5,1.8c0,1.1 -0.5,1.7 -1.4,1.7c-0.9,0 -1.5,-0.7 -1.5,-1.8c0,-1 0.5,-1.7 1.4,-1.7l0,0z" fill="#FFFFFF"/>
   <path id="svg_8" d="m66.850003,59.299997c0,1.6 1.2,2.5 3.2,2.5c2.1,0 3.3,-0.9 3.3,-2.6c0,-1.1 -0.6,-1.8 -1.7,-2.2c0.9,-0.3 1.4,-1 1.4,-2c0,-1.5 -1.1,-2.3 -2.9,-2.3c-1.9,0 -3,0.9 -3,2.4c0,1 0.5,1.6 1.4,2c-1.1,0.3 -1.7,1.1 -1.7,2.2l0,0zm3.2,-5.8c0.8,0 1.3,0.6 1.3,1.6c0,1 -0.5,1.6 -1.2,1.6c-0.8,0 -1.3,-0.6 -1.3,-1.6c0,-1 0.5,-1.6 1.2,-1.6l0,0zm0,4c0.9,0 1.5,0.7 1.5,1.8c0,1.1 -0.5,1.7 -1.4,1.7c-0.9,0 -1.4,-0.7 -1.4,-1.8c-0.1,-1 0.5,-1.7 1.3,-1.7l0,0z" fill="#FFFFFF"/>
   <path id="svg_9" d="m78.350003,55.999997c-1,0 -1.6,0.4 -2,0.9c0.1,-2 0.6,-3.3 2,-3.3c1.1,0 1.7,1.1 1.7,1.1l0,-1.6c0,0 -0.6,-0.3 -1.8,-0.3c-2.2,0 -3.7,1.7 -3.7,4.7c0,3 1.2,4.4 3.3,4.4c1.9,0 3.1,-1.2 3.1,-3.1c-0.1,-1.8 -1,-2.8 -2.6,-2.8l0,0zm-0.4,4.9c-0.9,0 -1.5,-0.7 -1.5,-3.1c0.3,-0.4 0.8,-0.8 1.4,-0.8c0.9,0 1.4,0.6 1.4,1.8c-0.1,1.4 -0.5,2.1 -1.3,2.1l0,0z" fill="#FFFFFF"/>
   <path id="svg_10" d="m72.250003,27.499997c-12.3,-12.4 -32.2,-12.4 -44.4,0c-6,6 -9,13.8 -9.2,21.7l0,0c0,0 0,0.1 0,0.1c0,0.3 0,0.7 0,1c0,-0.1 0,-0.3 0,-0.4c0,2.7 0.3,5.4 1,8.2c4.4,17 21.5,27.2 38.3,22.8c7.9,-2.1 14.3,-7 18.4,-13.5l-0.1,0c-3.8,5.5 -9.4,9.7 -16.3,11.5c-15.3,4 -31,-5.3 -35,-20.8c-0.8,-3 -1,-5.9 -0.9,-8.8l1.3,0c-0.1,2.4 0.2,4.8 0.8,7.2c3.6,13.9 17.6,22.2 31.4,18.6c5,-1.3 9.3,-4.1 12.5,-7.7l0,0c-4.1,3.9 -9.7,6.4 -15.8,6.4c-6.6,0 -12.5,-2.8 -16.7,-7.3c-0.1,-0.1 -0.1,-0.1 -0.2,-0.2c-0.1,-0.1 -0.1,-0.2 -0.2,-0.2c-2.4,-2.7 -4.2,-5.9 -5.1,-9.7c-0.6,-2.4 -0.8,-4.7 -0.7,-7.1l1.5,0c-0.1,2 0.1,4 0.6,6c2.7,10.7 13.5,17.1 24.1,14.3c1.8,-0.5 3.5,-1.2 5.1,-2.2l-0.4,0c-2.1,0.9 -4.4,1.4 -6.8,1.4c-9.5,0 -17.1,-7.7 -17.1,-17.3c0,-0.8 0.1,-1.5 0.2,-2.3l4.5,0l18.5,0l0,0l6,0l0,0l8.5,0l5.5,0l0,0c-0.3,-7.8 -3.4,-15.6 -9.3,-21.7l0,0zm-43.7,20.9c0.6,-3.2 2.1,-6.3 4.5,-8.7c6.5,-6.6 17.1,-6.6 23.6,0c1.7,1.7 2.9,3.7 3.7,5.8l-31.8,2.9l0,0zm33.2,-11.3c-7.7,-7.8 -20.2,-7.8 -27.9,0c-3.2,3.2 -5,7.2 -5.5,11.4l-5.1,0.4c0.6,-4.9 2.8,-9.7 6.5,-13.5c9,-9.1 23.6,-9.1 32.6,0c2.7,2.7 4.5,6 5.6,9.4l-1.5,0.1c-0.9,-2.9 -2.4,-5.6 -4.7,-7.8l0,0zm12.3,7.1c-1.1,-4.4 -3.3,-8.5 -6.7,-11.9c-10.1,-10.2 -26.5,-10.2 -36.6,0c-4.6,4.6 -7,10.5 -7.5,16.6l-3,0.3l-1.6,0.1c0.4,-6.9 3.1,-13.7 8.3,-18.9c11.2,-11.3 29.4,-11.3 40.6,0c3.9,3.9 6.4,8.7 7.6,13.8l-1.1,0l0,0z" fill="#FFFFFF"/>
   <path id="svg_11" d="m13.050003,72.499997c2.1,-1.6 4.3,-1.1 5.8,1c0.7,1 1.1,1.9 1.1,1.9l-1.2,0.9c0,0 0.4,-1.2 -0.4,-2.3c-1,-1.3 -2.6,-1.4 -4.3,-0.1c-1.6,1.2 -2,2.7 -1,4.1c0.9,1.2 1.9,1.3 1.9,1.3l-0.7,0.7c0,0 -1,-0.4 -2,-1.9c-1.4,-2 -1.2,-4.2 0.8,-5.6l0,0z" fill="#FFFFFF"/>
   <path id="svg_12" d="m22.450003,82.999997c-1.6,1.7 -2.2,2.3 -2.7,2.9l-1.2,-1.2c0.6,-0.5 1.3,-1.1 2.9,-2.8l2.1,-2.1l-2.4,-2.4l-2.1,2.1c-1.6,1.7 -2.2,2.3 -2.7,2.9l-1.2,-1.2c0.6,-0.5 1.3,-1.1 2.9,-2.8c1.5,-1.5 2,-2.1 2.5,-2.7l4.7,4.7c-0.7,0.5 -1.3,1.1 -2.8,2.6l0,0z" fill="#FFFFFF"/>
   <path id="svg_13" d="m27.350003,88.499997c-0.9,1.3 -2.5,1.4 -3.9,0.4c-1.4,-1 -1.9,-2.5 -0.2,-4.8c1.6,-2.3 3,-2.5 5.1,-1.3l0.9,0.5c0.5,0.3 0.9,0.3 0.9,0.3l-0.9,1.3l-1.7,-1.1c-1.5,-1 -2.4,-0.9 -3.5,0.5c0.8,-0.4 1.8,-0.3 2.7,0.4c1.2,1 1.5,2.5 0.6,3.8l0,0zm-1.3,-1c0.7,-1 0.7,-1.9 0.1,-2.4c-0.6,-0.5 -1.6,-0.2 -2.2,0.8c-0.7,1 -0.7,1.9 -0.1,2.4c0.6,0.5 1.5,0.2 2.2,-0.8l0,0z" fill="#FFFFFF"/>
   <path id="svg_14" d="m34.750003,87.499997c-0.8,-0.9 -1.5,-1.2 -2.5,-1.7l-0.2,-0.1l-1.3,2.7c-1,2.1 -1.4,2.9 -1.6,3.7l-1.5,-0.8c0.4,-0.6 0.8,-1.5 1.9,-3.5c0.9,-1.9 1.3,-2.7 1.5,-3.4l4.3,2.1l-0.6,1l0,0z" fill="#FFFFFF"/>
   <path id="svg_15" d="m46.950003,88.899997l-0.1,1.1c-0.8,-0.5 -1.4,-0.6 -2,-0.7l-0.2,0l-0.4,3c-0.3,2.3 -0.4,3.2 -0.4,4l-1.7,-0.2c0.2,-0.7 0.3,-1.7 0.6,-4l0.4,-3l-0.2,0c-0.7,-0.1 -1.3,-0.1 -2.2,0.2l0.1,-1.1l6.1,0.7l0,0z" fill="#FFFFFF"/>
   <path id="svg_16" d="m54.450003,88.899997c-0.7,1.1 -1,2.3 -1.8,4.3c-1,2.4 -1.6,3.6 -3.2,3.6c-0.6,0 -0.9,-0.2 -0.9,-0.2l0,-1.3c0,0 0.5,0.5 1.1,0.5c0.5,0 0.9,-0.3 1.2,-0.7l-2.8,-4.5c-0.3,-0.6 -0.5,-0.8 -1.1,-1.6l2,0c0.2,0.8 0.3,1.1 1,2.2l1.6,2.5c0.1,-0.2 0.2,-0.5 0.3,-0.7c0.8,-2.2 1,-2.9 1,-4.1l1.6,0l0,0z" fill="#FFFFFF"/>
   <path id="svg_17" d="m56.950003,90.399997l0.6,-0.1l-0.6,2.3l1.5,1.8l-0.6,0.1l-1.9,-1.7l1,-2.4l0,0zm1.7,-0.4l0.6,-0.1l-0.6,2.3l1.5,1.8l-0.6,0.1l-1.9,-1.7l1,-2.4l0,0z" fill="#FFFFFF"/>
   <path id="svg_18" d="m68.350003,92.699997l-1.8,0.7c-0.3,-0.8 -0.5,-1.1 -1.5,-2.2l-2.6,-2.9l-0.1,3.8c0,1.4 0,1.9 0.2,2.7l-1.3,0.5c0.1,-0.9 0.1,-1.2 0.2,-2.9l0.3,-5.5l0.7,-0.3l0,0l0,0l0.4,-0.1l3.9,4.5c0.7,0.8 1,1 1.6,1.7l0,0z" fill="#FFFFFF"/>
   <path id="svg_19" d="m72.850003,85.499997c1.3,2.2 0.6,4.5 -1.6,5.8c-1.1,0.7 -2,0.9 -2,0.9l-0.7,-1.2c0,0 1.2,0.5 2.4,-0.2c1.4,-0.9 1.7,-2.4 0.7,-4.2l-0.4,0.2c-1,0.6 -1.7,1.1 -2.6,1.9l-0.6,-1c1.2,-0.5 1.9,-0.8 2.9,-1.4l0.3,-0.2c-1,-1.4 -2.4,-1.9 -3.7,-1c-1.2,0.7 -1.3,1.9 -1.3,1.9l-0.7,-0.9c0,0 0.4,-0.9 1.8,-1.7c2.2,-1.4 4.3,-1 5.5,1.1l0,0z" fill="#FFFFFF"/>
   <path id="svg_20" d="m75.750003,78.399997l0.7,0.9c-0.9,0.3 -1.4,0.6 -1.9,1l-0.2,0.2l1.9,2.3c1.5,1.8 2.1,2.5 2.6,3l-1.3,1.1c-0.4,-0.7 -1,-1.4 -2.4,-3.2l-1.9,-2.3l-0.2,0.1c-0.5,0.5 -0.9,0.9 -1.4,1.7l-0.7,-0.9l4.8,-3.9l0,0z" fill="#FFFFFF"/>
   <path id="svg_21" d="m83.450003,75.199997c1.7,1.5 2.4,2.1 3.1,2.5l-1.1,1.3c-0.5,-0.6 -1.2,-1.2 -2.9,-2.7l-1.7,-1.5l2.3,6.9l-1.1,1.2c-0.5,-0.6 -1.1,-1.1 -2.7,-2.5c-1.7,-1.5 -2.4,-2.1 -3.1,-2.5l1.1,-1.3c0.5,0.6 1.2,1.2 2.9,2.7l1.7,1.5l-2.3,-6.9l1.1,-1.2c0.5,0.6 1.1,1.1 2.7,2.5l0,0z" fill="#FFFFFF"/>
   <path id="svg_22" d="m86.750003,75.299997l-0.3,0.5l-1.2,-2.1l-2.3,-0.2l0.3,-0.5l2.5,-0.1l1,2.4l0,0zm0.9,-1.5l-0.3,0.5l-1.2,-2.1l-2.3,-0.2l0.3,-0.5l2.5,-0.1l1,2.4l0,0z" fill="#FFFFFF"/>
   <path id="svg_23" d="m6.850003,55.699997c2,-0.4 2.9,-0.6 3.6,-0.8l0.2,1.5c-0.7,0 -1.5,0.2 -3.5,0.6l-2.6,0.5l0.6,3.1l2.6,-0.5c2,-0.4 2.8,-0.6 3.5,-0.8l0.4,1.5c-0.7,0 -1.6,0.2 -3.6,0.6c-1.9,0.4 -2.6,0.5 -3.2,0.8l-1.2,-5.9c0.6,-0.1 1.4,-0.2 3.2,-0.6l0,0z" fill="#FFFFFF"/>
   <path id="svg_24" d="m9.050003,49.099997l1.2,0c0,0 0,1.6 0,2.3c0,0.7 0.1,2.2 0.1,2.2c-0.7,-0.1 -1.5,-0.1 -3.6,0c-1.9,0.1 -2.7,0.1 -3.3,0.2l-0.2,-4.3l1,0c-0.3,1 -0.3,1.7 -0.3,2.7l0,0.2l2.3,-0.1c0,-0.9 -0.1,-1.4 -0.3,-2.2l1.1,0c-0.2,0.9 -0.2,1.4 -0.2,2.2l2.7,-0.1l0,-0.4c0,-1 -0.1,-1.8 -0.5,-2.7l0,0z" fill="#FFFFFF"/>
   <path id="svg_25" d="m5.450003,43.099997c1.4,0.1 2.1,1.1 2,3.1l0,0.5c1.3,0.1 2.1,0.1 2.8,0l-0.1,1.6c-0.7,-0.1 -1.5,-0.2 -3.6,-0.3c-1.9,-0.1 -2.6,-0.1 -3.3,-0.1l0.1,-2.4c0.1,-1.6 0.8,-2.4 2.1,-2.4l0,0zm0,1.5c-0.9,-0.1 -1.4,0.4 -1.5,1.3l0,0.6l2.9,0.2l0,-0.4c0.1,-1.1 -0.4,-1.7 -1.4,-1.7l0,0z" fill="#FFFFFF"/>
   <path id="svg_26" d="m9.750003,37.999997c1.3,0.3 1.8,1.4 1.4,3.3l-0.2,0.8l-0.2,1.4c-0.7,-0.2 -1.5,-0.4 -3.5,-0.8c-1.9,-0.4 -2.6,-0.5 -3.3,-0.6l0.5,-2.5c0.3,-1.6 1,-2.3 2,-2.1c0.8,0.2 1.4,0.8 1.3,1.9c0.4,-1.2 1.1,-1.5 2,-1.4l0,0zm-4.9,2.9l2.3,0.5l0.1,-0.5c0.2,-1 -0.1,-1.5 -1,-1.7c-0.7,-0.1 -1.2,0.2 -1.3,1.1l-0.1,0.6l0,0zm4.7,-1.4c-0.9,-0.2 -1.5,0.4 -1.7,1.5l-0.1,0.5l2.6,0.5l0.1,-0.5c0.2,-1.1 -0.1,-1.9 -0.9,-2l0,0z" fill="#FFFFFF"/>
   <path id="svg_27" d="m11.250003,30.199997c-1.7,-0.8 -2.4,-1.2 -3,-1.5l-0.7,1.4c0.6,0.2 1.3,0.5 3.1,1.3c1.9,0.9 2.6,1.3 3.2,1.6l0.7,-1.4c-0.6,-0.2 -1.4,-0.5 -3.3,-1.4l0,0z" fill="#FFFFFF"/>
   <path id="svg_28" d="m11.550003,32.699997c-1.2,-0.5 -2.1,0.1 -2.7,1.6l-0.3,0.8c-1.2,-0.5 -1.9,-0.8 -2.5,-1.1l-0.6,1.4c0.7,0.2 1.4,0.5 3.4,1.3c1.8,0.7 2.5,1 3,1.4l0.5,-1.4l0.1,-0.4c0.8,-1.8 0.4,-3.1 -0.9,-3.6l0,0zm0.4,3.4l-0.2,0.3l-2.7,-1.1l0.2,-0.5c0.4,-0.9 1,-1.1 1.8,-0.8c1,0.4 1.3,1.1 0.9,2.1l0,0z" fill="#FFFFFF"/>
   <path id="svg_29" d="m15.450003,23.499997c1.7,1.2 2.5,1.7 3.1,2l-0.9,1.2c-0.5,-0.5 -1.2,-0.9 -2.9,-2.1l-1.7,-1.1l2.8,5.9l-0.7,1.3c-0.5,-0.5 -1.2,-1 -2.8,-2c-1.7,-1.2 -2.4,-1.6 -3,-1.9l0.9,-1.3c0.5,0.5 1.2,0.9 2.9,2.1l1.7,1.1l-2.8,-5.9l0.8,-1.2c0.4,0.4 1.1,0.8 2.6,1.9l0,0zm-7,1.2l0.7,-1c0,0 0.8,0.6 1.3,-0.1c0.5,-0.7 -0.4,-1.2 -0.4,-1.2l0.7,-1c0,0 1.1,1.1 0.2,2.5c-1.1,1.4 -2.5,0.8 -2.5,0.8l0,0z" fill="#FFFFFF"/>
   <path id="svg_30" d="m23.150003,15.499997c1.6,1.7 1.3,3.8 -0.4,5.4c-0.9,0.8 -1.6,1.2 -1.6,1.2l-0.9,-1c0,0 1.2,0.2 2.1,-0.6c1.1,-1 1.1,-2.5 -0.1,-3.8l-0.3,0.3c-0.8,0.7 -1.3,1.3 -2,2.1l-0.7,-0.8c0.9,-0.6 1.5,-1.1 2.3,-1.8l0.3,-0.2c-1.2,-1.1 -2.4,-1.2 -3.5,-0.2c-0.9,0.8 -0.9,2 -0.9,2l-0.7,-0.7c0,0 0.2,-0.9 1.3,-1.8c1.7,-1.7 3.7,-1.7 5.1,-0.1l0,0z" fill="#FFFFFF"/>
   <path id="svg_31" d="m30.950003,14.899997l-1.6,0.9c-0.4,-0.6 -0.6,-0.8 -1.8,-1.6l-2.9,-2l0.8,3.4c0.3,1.2 0.4,1.6 0.7,2.3l-1,0.7c-0.1,-0.8 -0.2,-1.1 -0.5,-2.5l-1,-4.9l0.6,-0.4l0,0l0,0l0.3,-0.2l4.4,3.1c0.9,0.6 1.3,0.8 2,1.2l0,0z" fill="#FFFFFF"/>
   <path id="svg_32" d="m34.850003,11.899997l0.5,1c0,0 -1.7,0.7 -2.1,0.9c-0.4,0.2 -2,0.9 -2,0.9c-0.2,-0.7 -0.5,-1.4 -1.4,-3.3c-0.8,-1.8 -1.1,-2.4 -1.5,-3l3.9,-1.8l0.4,0.9c-1.1,0.1 -1.7,0.3 -2.6,0.7l-0.1,0.2l1,2.2c0.8,-0.4 1.2,-0.6 1.9,-1.1l0.4,1c-0.8,0.2 -1.3,0.4 -2.1,0.7l1.1,2.5l0.3,-0.1c1,-0.6 1.7,-1 2.3,-1.7l0,0z" fill="#FFFFFF"/>
   <path id="svg_33" d="m35.150003,5.599997c0.1,0.7 0.3,1.4 0.9,3.2c0.6,2 0.8,2.8 1.1,3.4l-1.5,0.5c-0.1,-0.7 -0.3,-1.5 -0.9,-3.5c-0.6,-1.8 -0.8,-2.6 -1.1,-3.2l1.5,-0.4l0,0zm6.6,5.5l-2.1,0.5l-3.5,-2.8l0.9,-1.8c0.5,-1 0.7,-1.5 0.8,-2.2l1.4,-0.4c0,0 -0.6,0.9 -1.1,1.9l-0.9,1.7l1.5,1.2c1.2,0.8 1.9,1.4 3,1.9l0,0z" fill="#FFFFFF"/>
   <path id="svg_34" d="m44.850003,3.499997l0.2,1c-0.8,-0.2 -1.4,-0.2 -1.9,-0.1l-0.2,0l0.4,2.7c0.3,2.1 0.5,2.9 0.7,3.6l-1.5,0.3c0,-0.7 -0.1,-1.5 -0.5,-3.6l-0.4,-2.7l-0.2,0c-0.6,0.1 -1.1,0.3 -1.8,0.7l-0.2,-1l5.4,-0.9l0,0z" fill="#FFFFFF"/>
   <path id="svg_35" d="m50.950003,5.199997c0,1.5 -0.9,2.3 -2.9,2.3l-0.5,0c0,1.4 0.1,2.1 0.2,2.8l-1.5,0.1c0.1,-0.7 0.1,-1.6 0,-3.7c-0.1,-1.9 -0.1,-2.7 -0.2,-3.4l2.4,-0.1c1.6,0.1 2.5,0.7 2.5,2l0,0zm-1.4,0.1c0,-0.9 -0.5,-1.4 -1.5,-1.4l-0.6,0l0.1,2.9l0.4,0c1.2,0.1 1.7,-0.5 1.6,-1.5l0,0z" fill="#FFFFFF"/>
   <path id="svg_36" d="m51.350003,6.699997c0.3,-2.3 1.9,-3.5 4.2,-3.2c2.1,0.3 3.3,1.8 3,4c-0.3,2.3 -1.9,3.5 -4.2,3.2c-2.2,-0.3 -3.3,-1.8 -3,-4l0,0zm5.6,0.8c0.2,-1.9 -0.4,-3.1 -1.7,-3.3c-1.3,-0.2 -2.2,0.8 -2.4,2.6c-0.2,1.9 0.4,3.1 1.7,3.3c1.2,0.2 2.2,-0.8 2.4,-2.6l0,0z" fill="#FFFFFF"/>
   <path id="svg_37" d="m64.350003,5.799997l-0.3,1c-0.7,-0.5 -1.2,-0.7 -1.7,-0.9l-0.2,-0.1l-0.7,2.6c-0.6,2 -0.8,2.8 -0.9,3.5l-1.5,-0.4c0.3,-0.6 0.5,-1.4 1.1,-3.5l0.7,-2.6l-0.2,-0.1c-0.6,-0.2 -1.1,-0.2 -2,-0.1l0.3,-1l5.4,1.6l0,0z" fill="#FFFFFF"/>
   <path id="svg_38" d="m66.950003,13.199997l-0.4,1.1c0,0 -1.5,-0.7 -2,-0.9c-0.4,-0.2 -2.2,-0.9 -2.2,-0.9c0.3,-0.6 0.7,-1.4 1.5,-3.3c0.7,-1.8 1,-2.5 1.2,-3.1l3.9,1.7l-0.4,1c-0.8,-0.7 -1.4,-1 -2.3,-1.4l-0.2,-0.1l-0.8,2.1c0.8,0.3 1.3,0.5 2.1,0.7l-0.4,1c-0.7,-0.5 -1.2,-0.7 -1.9,-1.1l-1,2.5l0.3,0.1c0.9,0.5 1.7,0.7 2.6,0.6l0,0z" fill="#FFFFFF"/>
   <path id="svg_39" d="m71.550003,17.199997l-1.6,-1c0.2,-0.7 0.1,-1 0.1,-2.2l0,-1l-0.8,0.4c-1,0.5 -1.3,0.8 -1.8,1.3l-1.3,-0.7c0,0 0.8,-0.3 1.7,-0.7l2.2,-1l-0.1,-2.5c0,-1 -0.2,-1.8 -0.2,-1.8l1.6,0.9c-0.2,0.7 -0.2,1.1 -0.1,2.2l0,0.8l0.6,-0.3c1,-0.5 1.4,-0.8 1.9,-1.3l1.1,0.7c0,0 -0.7,0.3 -1.7,0.7l-2,0.9l0.1,2.7c0.1,1.2 0.3,1.9 0.3,1.9l0,0z" fill="#FFFFFF"/>
   <path id="svg_40" d="m78.450003,18.199997c-1.3,1.6 -1.9,2.3 -2.2,2.9l-1.1,-1c0.5,-0.5 1,-1 2.1,-2.5l-2.5,-2c-1.2,1.5 -1.6,2.1 -1.9,2.6l-1.2,-0.9c0.5,-0.5 1,-1.1 2.3,-2.8c1.2,-1.5 1.6,-2.1 2,-2.7l1.2,1c-0.4,0.4 -0.9,1 -1.9,2.2l2.5,2c1,-1.3 1.4,-1.8 1.8,-2.4l1.2,1c-0.6,0.5 -1.1,1.1 -2.3,2.6l0,0z" fill="#FFFFFF"/>
   <path id="svg_41" d="m83.850003,24.099997c-1.6,1.4 -2.3,2 -2.7,2.5l-0.9,-1.2c0.6,-0.4 1.2,-0.9 2.8,-2.3l1.5,-1.3l-6.4,1.2l-1,-1.1c0.6,-0.4 1.2,-0.9 2.7,-2.1c1.6,-1.4 2.2,-1.9 2.6,-2.4l1,1.2c-0.6,0.4 -1.2,0.9 -2.8,2.3l-1.5,1.3l6.4,-1.2l0.9,1.1c-0.6,0.3 -1.2,0.8 -2.6,2l0,0z" fill="#FFFFFF"/>
   <path id="svg_42" d="m87.150003,29.399997c-1.8,1.1 -2.5,1.5 -3.1,2l-0.7,-1.4c0.6,-0.3 1.2,-0.6 2.6,-1.5c-0.3,-0.2 -0.9,-0.7 -1.4,-1.4c-0.7,-1.2 -0.4,-2 0.6,-2.6c0.9,-0.5 1.5,-0.9 2,-1.4l0.8,1.3c-0.7,0.3 -1.4,0.7 -2,1.1c-0.7,0.4 -0.9,0.9 -0.5,1.6c0.3,0.5 0.7,0.9 1,1.1c1.6,-1 2.2,-1.4 2.7,-1.8l0.8,1.3c-0.6,0.3 -1.2,0.7 -2.8,1.7l0,0z" fill="#FFFFFF"/>
   <path id="svg_43" d="m87.350003,36.099997l-1,0.5c0,0 -0.7,-1.7 -0.9,-2.2c-0.2,-0.5 -0.9,-2 -0.9,-2c0.7,-0.2 1.4,-0.5 3.3,-1.4c1.7,-0.8 2.4,-1.1 3,-1.5l1.7,4l-0.9,0.4c-0.1,-1.1 -0.3,-1.7 -0.7,-2.6l-0.1,-0.2l-2.1,1c0.4,0.8 0.6,1.2 1.1,1.9l-1,0.4c-0.2,-0.9 -0.3,-1.3 -0.7,-2.1l-2.4,1.1l0.1,0.3c0.4,1 0.8,1.8 1.5,2.4l0,0z" fill="#FFFFFF"/>
   <path id="svg_44" d="m89.650003,35.299997c2.3,-0.6 4,0.7 4.5,2.9c0.3,1.1 0.2,1.9 0.2,1.9l-1.3,0.3c0,0 0.7,-0.9 0.4,-2.1c-0.4,-1.5 -1.7,-2.1 -3.5,-1.6c-1.7,0.4 -2.6,1.6 -2.2,3.1c0.3,1.3 1.1,1.7 1.1,1.7l-0.8,0.3c0,0 -0.7,-0.7 -1,-2.3c-0.5,-1.9 0.4,-3.7 2.6,-4.2l0,0z" fill="#FFFFFF"/>
   <path id="svg_45" d="m94.950003,42.799997c-0.7,0 -1.4,0.1 -3.3,0.3c-2.1,0.2 -2.9,0.4 -3.5,0.5l-0.3,-1.6c0.7,0 1.6,-0.1 3.7,-0.3c1.9,-0.2 2.6,-0.3 3.3,-0.5l0.1,1.6l0,0zm-6.4,5.5l-0.1,-2.1l3.3,-3l1.5,1.2c0.9,0.7 1.3,1 2,1.2l0.2,1.5c0,0 -0.8,-0.8 -1.7,-1.4l-1.5,-1.3l-1.4,1.3c-1.1,1.1 -1.7,1.7 -2.3,2.6l0,0z" fill="#FFFFFF"/>
   <path id="svg_46" d="m92.050003,54.199997c-2.1,-0.1 -3,-0.1 -3.6,0l0.1,-1.6c0.7,0.1 1.5,0.2 3.6,0.2l2,0.1l-5.5,-3.5l0,-1.5c0.7,0.1 1.5,0.2 3.4,0.2c2.1,0.1 2.9,0.1 3.6,0l0,1.6c-0.7,-0.1 -1.5,-0.2 -3.6,-0.2l-2,-0.1l5.5,3.5l0,1.5c-0.9,-0.1 -1.6,-0.1 -3.5,-0.2l0,0z" fill="#FFFFFF"/>
   <path id="svg_47" d="m90.750003,61.399997c-2,-0.4 -2.9,-0.6 -3.6,-0.6l0.4,-1.5c0.7,0.2 1.5,0.4 3.5,0.8l2,0.4l-4.9,-4.3l0.2,-1.5c0.6,0.2 1.4,0.4 3.3,0.7c2,0.4 2.9,0.5 3.5,0.6l-0.3,1.5c-0.7,-0.2 -1.5,-0.4 -3.5,-0.8l-2,-0.4l4.9,4.3l-0.3,1.4c-0.6,-0.1 -1.3,-0.3 -3.2,-0.6l0,0zm6,-4l-0.2,1.2c0,0 -1,-0.2 -1.1,0.6c-0.2,0.8 0.9,1 0.9,1l-0.2,1.2c0,0 -1.5,-0.5 -1.2,-2.3c0.2,-1.7 1.8,-1.7 1.8,-1.7l0,0z" fill="#FFFFFF"/>
  </g>
 </g>
</svg>